<svg width="43" height="26" viewBox="0 0 43 26" fill="none" xmlns="http://www.w3.org/2000/svg">
<path d="M0.000885243 21.9979H43V19.9968H0.000885243V21.9979ZM0.000885243 18.0005H43V15.9993H0.000885243V18.0005ZM42.996 2.00116V0H0.000885243V14.0083H43V12.0071L17.1957 12.0069V10.0058H42.9952V8.00461H17.1957V6.00345H42.9952V4.00229H17.1957V2.00113L42.996 2.00116ZM14.3305 2.03962L14.5745 2.5411L15.1248 2.62304L14.7277 3.01357L14.8233 3.56328L14.3305 3.30287L13.8425 3.55857L13.9382 3.00886L13.541 2.61833L14.0913 2.53639L14.3305 2.03962ZM14.8234 6.36011L14.3306 6.09971L13.8425 6.36011L13.9381 5.81041L13.541 5.41987L14.0912 5.33794L14.3353 4.83645L14.5794 5.33794L15.1297 5.41987L14.7325 5.81041L14.8234 6.36011ZM14.8234 9.16164L14.3306 8.90124L13.8425 9.16164L13.9381 8.61194L13.541 8.22141L14.0912 8.13947L14.3353 7.63798L14.5794 8.13947L15.1297 8.22141L14.7325 8.61194L14.8234 9.16164ZM13.388 10.5601L12.8952 10.2997L12.4071 10.5601L12.5027 10.0104L12.1055 9.61982L12.6558 9.53788L12.8999 9.0364L13.144 9.53788L13.6942 9.61982L13.2971 10.0104L13.388 10.5601ZM11.9572 9.16164L11.4644 8.90124L10.9716 9.16164L11.0673 8.61194L10.6701 8.22141L11.2204 8.13947L11.4645 7.63798L11.7085 8.13947L12.2588 8.22141L11.8616 8.61194L11.9572 9.16164ZM10.5218 10.5601L10.029 10.2997L9.53621 10.5601L9.63184 10.0104L9.23467 9.61982L9.78496 9.53788L10.029 9.0364L10.2731 9.53788L10.8234 9.61982L10.4262 10.0104L10.5218 10.5601ZM9.09119 9.16164L8.5984 8.90124L8.1056 9.16164L8.20124 8.61194L7.80406 8.22141L8.35435 8.13947L8.59842 7.63798L8.84249 8.13947L9.39277 8.22141L8.9956 8.61194L9.09119 9.16164ZM7.65576 10.5601L7.16296 10.2997L6.67017 10.5601L6.76581 10.0104L6.36863 9.61982L6.91892 9.53788L7.16299 9.0364L7.40706 9.53788L7.95734 9.61982L7.56017 10.0104L7.65576 10.5601ZM6.22033 9.16164L5.72753 8.90124L5.23474 9.16164L5.33038 8.61194L4.9332 8.22141L5.48349 8.13947L5.72756 7.63798L5.97163 8.13947L6.52191 8.22141L6.12474 8.61194L6.22033 9.16164ZM4.78972 10.5601L4.29693 10.2997L3.80414 10.5601L3.89977 10.0104L3.5026 9.61982L4.05289 9.53788L4.29695 9.0364L4.54102 9.53788L5.09131 9.61982L4.69414 10.0104L4.78972 10.5601ZM3.35429 9.16164L2.8615 8.90124L2.36871 9.16164L2.46434 8.61194L2.072 8.22125L2.62228 8.13931L2.86635 7.63783L3.11042 8.13931L3.66071 8.22125L3.26353 8.61178L3.35429 9.16164ZM2.07197 5.41975L2.62226 5.33781L2.86633 4.83632L3.11039 5.33781L3.66068 5.41975L3.26351 5.81028L3.35914 6.35998L2.86635 6.09958L2.37356 6.35998L2.46919 5.81028L2.07197 5.41975ZM13.3879 4.96174L12.8952 4.70133L12.407 4.96174L12.5027 4.41203L12.1055 4.0215L12.6558 3.93956L12.8998 3.43808L13.1439 3.93956L13.6942 4.0215L13.297 4.41203L13.3879 4.96174ZM13.3879 7.75841L12.8952 7.498L12.407 7.75841L12.5027 7.2087L12.1055 6.81817L12.6558 6.73623L12.8998 6.23475L13.1439 6.73623L13.6942 6.81817L13.297 7.2087L13.3879 7.75841ZM12.2587 5.41979L11.8616 5.81032L11.9572 6.36002L11.4644 6.09962L10.9716 6.36002L11.0673 5.81032L10.6701 5.41979L11.2204 5.33785L11.4644 4.83636L11.7085 5.33785L12.2587 5.41979ZM10.5218 7.75841L10.029 7.498L9.53621 7.75841L9.63184 7.2087L9.23467 6.81817L9.78496 6.73623L10.029 6.23475L10.2731 6.73623L10.8234 6.81817L10.4262 7.2087L10.5218 7.75841ZM10.431 4.41207L10.5266 4.96178L10.0338 4.70137L9.54104 4.96178L9.63667 4.41207L9.2395 4.02154L9.78979 3.9396L10.0339 3.43812L10.2779 3.9396L10.8282 4.02154L10.431 4.41207ZM9.39258 5.41979L8.9954 5.81032L9.09103 6.36002L8.59824 6.09962L8.10545 6.36002L8.20108 5.81032L7.80391 5.41979L8.3542 5.33785L8.59827 4.83636L8.84233 5.33785L9.39258 5.41979ZM7.65574 7.75841L7.16295 7.498L6.67016 7.75841L6.76579 7.2087L6.36862 6.81817L6.91891 6.73623L7.16298 6.23475L7.40704 6.73623L7.95733 6.81817L7.56016 7.2087L7.65574 7.75841ZM7.56011 4.41207L7.65574 4.96178L7.16295 4.70137L6.67016 4.96178L6.76579 4.41207L6.36862 4.02154L6.91891 3.9396L7.16298 3.43812L7.40704 3.9396L7.95733 4.02154L7.56011 4.41207ZM6.52652 5.41979L6.12935 5.81032L6.22498 6.36002L5.73219 6.09962L5.2394 6.36002L5.33503 5.81032L4.93786 5.41979L5.48815 5.33785L5.73222 4.83636L5.97628 5.33785L6.52652 5.41979ZM4.78969 7.75841L4.2969 7.498L3.80411 7.75841L3.89974 7.2087L3.50257 6.81817L4.05286 6.73623L4.29693 6.23475L4.54099 6.73623L5.09128 6.81817L4.69411 7.2087L4.78969 7.75841ZM4.69391 4.41207L4.78954 4.96178L4.29675 4.70137L3.80395 4.96178L3.89959 4.41207L3.50241 4.02154L4.0527 3.9396L4.29677 3.43812L4.54084 3.9396L5.09112 4.02154L4.69391 4.41207ZM12.651 1.13795L12.895 0.636462L13.1391 1.13795L13.6894 1.21989L13.2922 1.61042L13.3879 2.16012L12.8951 1.89972L12.4069 2.16012L12.5026 1.61042L12.1054 1.21989L12.651 1.13795ZM11.4643 2.03958L11.7083 2.54106L12.2586 2.623L11.8615 3.01353L11.9571 3.56324L11.4643 3.30283L10.9715 3.56324L11.0671 3.01353L10.67 2.623L11.2203 2.54106L11.4643 2.03958ZM9.78478 1.13795L10.0288 0.636462L10.2729 1.13795L10.8232 1.21989L10.426 1.61042L10.5217 2.16012L10.0289 1.89972L9.53608 2.16012L9.63171 1.61042L9.23454 1.21989L9.78478 1.13795ZM8.59824 2.03958L8.8423 2.54106L9.39259 2.623L8.99542 3.01353L9.09105 3.56324L8.59826 3.30283L8.10547 3.56324L8.2011 3.01353L7.80393 2.623L8.35422 2.54106L8.59824 2.03958ZM6.91874 1.13795L7.16281 0.636462L7.40688 1.13795L7.95716 1.21989L7.55999 1.61042L7.65562 2.16012L7.16283 1.89972L6.67004 2.16012L6.76567 1.61042L6.3685 1.21989L6.91874 1.13795ZM5.7322 2.03958L5.97627 2.54106L6.52655 2.623L6.12938 3.01353L6.22501 3.56324L5.73222 3.30283L5.23943 3.56324L5.33506 3.01353L4.93789 2.623L5.48818 2.54106L5.7322 2.03958ZM4.05271 1.13795L4.29677 0.636462L4.54084 1.13795L5.09113 1.21989L4.69396 1.61042L4.78959 2.16012L4.2968 1.89972L3.80401 2.16012L3.89964 1.61042L3.50247 1.21989L4.05271 1.13795ZM2.866 2.03958L3.11007 2.54106L3.66036 2.623L3.26319 3.01353L3.35882 3.56324L2.86603 3.30283L2.37324 3.56324L2.46887 3.01353L2.07185 2.6183L2.62214 2.53636L2.866 2.03958ZM1.18667 1.13795L1.43074 0.636462L1.6748 1.13795L2.22509 1.21989L1.82792 1.61042L1.92355 2.16012L1.43076 1.89972L0.93797 2.16012L1.0336 1.61042L0.63643 1.21989L1.18667 1.13795ZM1.18667 3.93948L1.43074 3.43799L1.6748 3.93948L2.22509 4.02142L1.82792 4.41195L1.92355 4.96165L1.43076 4.70125L0.93797 4.96165L1.0336 4.41195L0.63643 4.02142L1.18667 3.93948ZM1.18667 6.74101L1.43074 6.23952L1.6748 6.74101L2.22509 6.82295L1.82792 7.21348L1.92355 7.76318L1.4306 7.50293L0.937811 7.76334L1.03344 7.21364L0.636426 6.81824L1.18667 6.74101ZM1.18667 9.53784L1.43074 9.03635L1.6748 9.53784L2.22509 9.61978L1.82777 10.0105L1.9234 10.5602L1.43061 10.2998L0.937814 10.5602L1.03345 10.0105L0.63643 9.61978L1.18667 9.53784ZM1.9234 13.3617L1.43061 13.1013L0.937822 13.3617L1.03345 12.812L0.636438 12.4214L1.18673 12.3395L1.43079 11.838L1.67486 12.3395L2.22515 12.4214L1.82798 12.812L1.9234 13.3617ZM2.86604 11.7029L2.37325 11.9633L2.46888 11.4136L2.07187 11.0182L2.62216 10.9362L2.86622 10.4348L3.11029 10.9362L3.66058 11.0182L3.26341 11.4087L3.35904 11.9584L2.86604 11.7029ZM4.7896 13.3617L4.29681 13.1013L3.80402 13.3617L3.89965 12.812L3.50248 12.4214L4.05277 12.3395L4.29683 11.838L4.5409 12.3395L5.09119 12.4214L4.69402 12.812L4.7896 13.3617ZM5.73224 11.7029L5.23945 11.9633L5.33508 11.4136L4.93791 11.023L5.4882 10.9411L5.73226 10.4396L5.97633 10.9411L6.52662 11.023L6.12945 11.4136L6.22508 11.9633L5.73224 11.7029ZM7.65564 13.3617L7.16285 13.1013L6.67005 13.3617L6.76569 12.812L6.36851 12.4214L6.9188 12.3395L7.16287 11.838L7.40694 12.3395L7.95722 12.4214L7.56005 12.812L7.65564 13.3617ZM8.59828 11.7029L8.10548 11.9633L8.20112 11.4136L7.80394 11.023L8.35423 10.9411L8.5983 10.4396L8.84237 10.9411L9.39266 11.023L8.99548 11.4136L9.09111 11.9633L8.59828 11.7029ZM10.5217 13.3617L10.0289 13.1013L9.53609 13.3617L9.63172 12.812L9.23455 12.4214L9.78484 12.3395L10.0289 11.838L10.273 12.3395L10.8233 12.4214L10.4261 12.812L10.5217 13.3617ZM11.4643 11.7029L10.9715 11.9633L11.0672 11.4136L10.67 11.023L11.2203 10.9411L11.4643 10.4396L11.7084 10.9411L12.2587 11.023L11.8615 11.4136L11.9572 11.9633L11.4643 11.7029ZM13.3879 13.3617L12.8951 13.1013L12.4069 13.3617L12.5026 12.812L12.1054 12.4214L12.6557 12.3395L12.8998 11.838L13.1438 12.3395L13.6941 12.4214L13.2969 12.812L13.3879 13.3617ZM14.3303 11.7029L13.8424 11.9584L13.938 11.4087L13.5408 11.0182L14.0911 10.9362L14.3352 10.4347L14.5793 10.9362L15.1296 11.0182L14.7324 11.4087L14.828 11.9584L14.3303 11.7029ZM16.2539 13.3617L15.7611 13.1013L15.2683 13.3617L15.364 12.812L14.9668 12.4214L15.5171 12.3395L15.7611 11.838L16.0052 12.3395L16.5555 12.4214L16.1583 12.812L16.2539 13.3617ZM16.1629 10.0105L16.2586 10.5602L15.7658 10.2998L15.273 10.5602L15.3686 10.0105L14.9715 9.61994L15.5217 9.538L15.7658 9.03652L16.0099 9.538L16.5602 9.61994L16.1629 10.0105ZM16.1629 7.20878L16.2586 7.75849L15.7658 7.49808L15.273 7.75849L15.3686 7.20878L14.9715 6.81825L15.5217 6.73631L15.7658 6.23483L16.0099 6.73631L16.5602 6.81825L16.1629 7.20878ZM16.1629 4.41211L16.2586 4.96182L15.7658 4.70141L15.273 4.96182L15.3686 4.41211L14.9715 4.02158L15.5217 3.93964L15.7658 3.43816L16.0099 3.93964L16.5602 4.02158L16.1629 4.41211ZM16.1629 1.61042L16.2586 2.16013L15.7658 1.89972L15.273 2.16013L15.3686 1.61042L14.9715 1.21989L15.5217 1.13795L15.7658 0.636466L16.0099 1.13795L16.5602 1.21989L16.1629 1.61042ZM0 26H42.9991V23.9988H0V26Z" fill="black"/>
</svg>
