<svg width="33" height="33" viewBox="0 0 33 33" fill="none" xmlns="http://www.w3.org/2000/svg">
<path d="M33 22.3954V30.0542C33 30.8348 32.6891 31.5845 32.1367 32.1369C31.5842 32.6892 30.8343 33 30.0535 33H2.94643C1.31852 33 0 31.6818 0 30.0542V22.3954C0 21.7444 0.527402 21.2171 1.17857 21.2171C1.82974 21.2171 2.35714 21.7444 2.35714 22.3954V30.0542C2.35714 30.2103 2.41902 30.3606 2.52951 30.471C2.64 30.5815 2.79027 30.6434 2.94644 30.6434H30.0536C30.2097 30.6434 30.36 30.5815 30.4705 30.471C30.581 30.3606 30.6429 30.2103 30.6429 30.0542V22.3954C30.6429 21.7444 31.1703 21.2171 31.8214 21.2171C32.4726 21.2171 33 21.7444 33 22.3954ZM10.2655 9.09224L15.3214 4.02513V22.3954C15.3214 23.0464 15.8488 23.5737 16.5 23.5737C17.1512 23.5737 17.6786 23.0464 17.6786 22.3954V4.02513L22.7345 9.09224C22.9554 9.31465 23.2575 9.44131 23.5713 9.44131C23.885 9.44131 24.1871 9.31464 24.408 9.09224C24.6305 8.87131 24.7572 8.56935 24.7572 8.25563C24.7572 7.94192 24.6305 7.63995 24.408 7.41902L17.3366 0.349067C17.1156 0.126659 16.8136 0 16.4998 0C16.186 0 15.884 0.126668 15.663 0.349067L8.59162 7.41902C8.12902 7.88152 8.12902 8.62974 8.59162 9.09224C9.05422 9.55474 9.8026 9.55474 10.2652 9.09224H10.2655Z" fill="black"/>
</svg>
