<svg width="203" height="29" viewBox="0 0 203 29" fill="none" xmlns="http://www.w3.org/2000/svg">
<g clip-path="url(#clip0_3371_1148)">
<circle cx="14.5" cy="14.5" r="14.5" fill="black"/>
<path d="M19.9132 14.7962C19.1906 14.7962 18.5081 14.731 17.9915 14.6129C17.9586 14.6054 17.9249 14.597 17.8906 14.5886C18.565 15.1742 19.6218 15.5273 20.7489 15.5273C21.2057 15.5273 21.6457 15.4686 22.0634 15.3592V14.5542C21.9856 14.5767 21.908 14.5961 21.8349 14.6129C21.3182 14.731 20.6357 14.7962 19.9132 14.7962Z" fill="#D1D3D4"/>
<path d="M17.7617 15.2449V16.1326C18.4244 16.7923 19.5429 17.1992 20.7477 17.1992C21.2044 17.1992 21.6445 17.1408 22.0623 17.031V15.9749C21.641 16.0725 21.2007 16.1226 20.7477 16.1226C19.5975 16.1226 18.5351 15.8026 17.7617 15.2449Z" fill="#D1D3D4"/>
<path d="M17.7617 16.9168V17.8047C18.4244 18.4642 19.5429 18.8711 20.7477 18.8711C21.2044 18.8711 21.6445 18.8126 22.0623 18.7029V17.6468C21.641 17.7444 21.2007 17.7945 20.7477 17.7945C19.5975 17.7945 18.5351 17.4744 17.7617 16.9168Z" fill="#D1D3D4"/>
<path d="M17.7617 18.5887V19.4764C18.1847 19.8975 18.792 20.2136 19.4919 20.3876C19.6145 20.4181 19.7384 20.4458 19.8658 20.4673C20.0014 20.4901 20.1386 20.5097 20.2783 20.522C20.3093 20.5248 20.3414 20.5241 20.3727 20.5262C20.4968 20.535 20.6212 20.543 20.7477 20.543C21.2044 20.543 21.6445 20.4843 22.0623 20.3748V19.3187C21.641 19.4163 21.2007 19.4664 20.7477 19.4664C19.5975 19.4664 18.5351 19.1463 17.7617 18.5887Z" fill="#D1D3D4"/>
<path d="M20.006 22.7647C19.9277 22.7549 19.8504 22.7438 19.7738 22.7312C19.2769 22.6494 18.8111 22.5057 18.3953 22.3075C18.2888 22.2567 18.1856 22.2024 18.0859 22.1447V22.6946V23.0391C18.3785 23.1262 18.9697 23.2313 19.8348 23.2371C19.8606 23.2373 19.8842 23.2383 19.9105 23.2383C19.9238 23.2383 19.9356 23.2378 19.9489 23.2378C20.835 23.2348 21.4383 23.1274 21.735 23.0391V22.7263C21.4138 22.7808 21.084 22.8109 20.7463 22.8109C20.4945 22.8109 20.2473 22.7945 20.006 22.7647Z" fill="#D1D3D4"/>
<path d="M20.7477 21.1382C20.5648 21.1382 20.3843 21.1301 20.2068 21.1142C19.9888 21.0949 19.7759 21.0625 19.5686 21.0204C19.5271 21.012 19.4856 21.0041 19.4447 20.9947C18.8067 20.8501 18.2313 20.599 17.7617 20.2605V21.0539C17.8416 21.1347 17.9054 21.2277 17.9569 21.3274C18.1938 21.5212 18.474 21.6863 18.7845 21.821C19.0678 21.9437 19.3745 22.0406 19.6997 22.1068C19.8241 22.1322 19.9508 22.1515 20.0794 22.1678C20.2983 22.1955 20.5206 22.2148 20.7477 22.2148C21.1548 22.2148 21.5494 22.1701 21.9263 22.083C21.9659 22.0236 22.0118 21.9686 22.0623 21.9167V21.7362V20.9903C21.7835 21.0551 21.4968 21.0993 21.2033 21.1212C21.053 21.1326 20.9012 21.1382 20.7477 21.1382Z" fill="#D1D3D4"/>
<path d="M22.4387 8.42299C22.4194 8.72091 22.3509 9.00532 22.2377 9.26714C22.2109 9.32863 22.1816 9.38896 22.1504 9.44813C22.1233 9.49914 22.0933 9.54805 22.063 9.59674C21.9421 9.79147 21.7965 9.96826 21.6298 10.1236C21.5124 10.2326 21.385 10.3309 21.2487 10.4167C21.0474 10.5434 20.8278 10.6428 20.5939 10.7097C20.371 10.7733 20.1369 10.8096 19.894 10.8096C19.6512 10.8096 19.4169 10.7733 19.1942 10.7097C18.9604 10.6428 18.7407 10.5434 18.5395 10.4167C18.403 10.3309 18.2758 10.2326 18.1584 10.1236C18.0088 9.98457 17.8754 9.8292 17.7624 9.65823C17.7317 9.61164 17.7028 9.56343 17.675 9.51474C17.6436 9.45931 17.6152 9.40224 17.5877 9.34447C17.4312 9.01394 17.3408 8.64591 17.3408 8.25645C17.3408 8.14743 17.4293 8.05892 17.5383 8.05892C17.5558 8.05892 17.5716 8.06474 17.5877 8.06894C17.6208 8.07779 17.6513 8.092 17.675 8.11506C17.7121 8.15093 17.7356 8.20078 17.7356 8.25645C17.7356 8.36639 17.7466 8.47377 17.7624 8.57952C17.8621 9.23942 18.2602 9.80125 18.8159 10.1236C19.1337 10.3076 19.5012 10.4148 19.894 10.4148C20.2869 10.4148 20.6545 10.3076 20.972 10.1236C21.5163 9.80801 21.9095 9.26248 22.0192 8.62029C22.0246 8.58861 22.0299 8.55693 22.0339 8.52502C22.0379 8.49241 22.0411 8.45956 22.0437 8.42672C22.0481 8.37035 22.0523 8.31398 22.0523 8.25645C22.0523 8.22919 22.0581 8.20311 22.0681 8.17935C22.0982 8.10877 22.1683 8.05892 22.2498 8.05892C22.3586 8.05892 22.4471 8.14743 22.4471 8.25645C22.4471 8.31258 22.4422 8.36756 22.4387 8.42299ZM19.0275 7.89913C19.4036 7.89913 19.7099 8.20543 19.7099 8.58185C19.7099 8.69063 19.6214 8.77915 19.5126 8.77915C19.4036 8.77915 19.3151 8.69063 19.3151 8.58185C19.3151 8.42299 19.1861 8.29395 19.0275 8.29395C18.8688 8.29395 18.7395 8.42299 18.7395 8.58185C18.7395 8.69063 18.651 8.77915 18.542 8.77915C18.4332 8.77915 18.3447 8.69063 18.3447 8.58185C18.3447 8.20543 18.651 7.89913 19.0275 7.89913ZM20.3575 8.034C20.3915 8.00884 20.4278 7.98718 20.4665 7.96854C20.5147 7.94525 20.565 7.92592 20.6188 7.9145C20.6647 7.90472 20.712 7.89913 20.7607 7.89913C20.937 7.89913 21.0964 7.96808 21.2177 8.07825C21.2603 8.11715 21.299 8.15978 21.3307 8.208C21.354 8.2434 21.3745 8.2809 21.3908 8.3205C21.4243 8.4011 21.4434 8.48915 21.4434 8.58185C21.4434 8.69063 21.3547 8.77915 21.2459 8.77915C21.1371 8.77915 21.0486 8.69063 21.0486 8.58185C21.0486 8.42299 20.9193 8.29395 20.7607 8.29395C20.6021 8.29395 20.473 8.42299 20.473 8.58185C20.473 8.69063 20.3843 8.77915 20.2755 8.77915C20.1667 8.77915 20.0782 8.69063 20.0782 8.58185C20.0782 8.35684 20.1888 8.15862 20.3575 8.034ZM20.4264 7.20406C20.2776 7.20756 20.1336 7.20965 19.9953 7.21035C19.9678 7.21035 19.9396 7.21058 19.9128 7.21058C19.7255 7.21058 19.5262 7.20802 19.3188 7.2022C18.9727 7.19241 18.6037 7.17378 18.2299 7.14466C18.0675 7.13185 17.9043 7.11718 17.7414 7.10041C17.6541 7.09132 17.5672 7.08131 17.4803 7.07106C16.6057 6.9667 15.7692 6.79527 15.1992 6.53112V8.50848V9.1714V9.91585V12.4849L15.2029 12.4893C15.2132 12.5 15.2295 12.5144 15.2523 12.5314C15.298 12.5655 15.3695 12.609 15.4724 12.6577C15.6355 12.7343 15.8789 12.8233 16.2248 12.9104C16.3173 12.9337 16.4156 12.9568 16.5234 12.9796C16.5831 12.9922 16.6471 13.0034 16.7091 13.0152C16.7839 13.0295 16.8584 13.0437 16.9364 13.0569C16.9553 13.0602 16.9753 13.063 16.9944 13.0663C17.004 13.0677 17.014 13.0693 17.0238 13.0707C17.0527 13.0753 17.0818 13.08 17.1111 13.0847C17.1235 13.0865 17.1353 13.0886 17.1479 13.0905C17.1612 13.0923 17.1742 13.0947 17.1878 13.0968C17.2211 13.1017 17.2537 13.107 17.2875 13.1117C17.383 13.1252 17.4815 13.1375 17.5807 13.1494C17.583 13.1496 17.5854 13.1499 17.5877 13.1503C17.6173 13.1538 17.6455 13.1578 17.675 13.1613C17.7037 13.1646 17.7337 13.1669 17.7624 13.1701C18.4265 13.2421 19.1584 13.2812 19.9128 13.2812C20.6671 13.2812 21.3989 13.2421 22.063 13.1701C22.0917 13.1669 22.1217 13.1646 22.1504 13.1613C22.1799 13.1578 22.2081 13.1538 22.2377 13.1501C22.24 13.1499 22.2424 13.1496 22.2447 13.1494C22.3439 13.1375 22.4425 13.1252 22.538 13.1117C22.5855 13.1049 22.6309 13.0975 22.6775 13.0905C22.6901 13.0886 22.7019 13.0865 22.7143 13.0847C22.7436 13.08 22.7728 13.0753 22.8016 13.0707C22.8114 13.0693 22.8214 13.0677 22.831 13.066C22.8501 13.063 22.8701 13.0602 22.889 13.0569C23.0315 13.0327 23.1704 13.0073 23.302 12.9796C24.045 12.8231 24.4121 12.646 24.5596 12.5412C24.5978 12.5147 24.6169 12.4951 24.6262 12.4842V6.53112C23.6323 6.99163 21.828 7.16959 20.4264 7.20406Z" fill="#D1D3D4"/>
<path d="M19.9127 6.00781L20.5288 5.95237L21.5442 5.86083V5.8436V5.71409V5.56711L20.5295 5.47556L19.9127 5.42013L19.2959 5.47556L18.2812 5.56711V5.71409V5.8436V5.86083L19.2966 5.95237L19.9127 6.00781Z" fill="#D1D3D4"/>
<path d="M9.95634 14.6473C11.7087 14.6473 13.1345 16.073 13.1345 17.8254C13.1345 19.5777 11.7087 21.0035 9.95634 21.0035C8.20377 21.0035 6.77799 19.5777 6.77799 17.8254C6.77799 16.073 8.20377 14.6473 9.95634 14.6473ZM8.88975 12.7631C9.3244 12.7631 9.67753 13.1162 9.67753 13.5508C9.67753 13.6596 9.58901 13.7481 9.48023 13.7481C9.37145 13.7481 9.28294 13.6596 9.28294 13.5508C9.28294 13.3342 9.10661 13.1579 8.88975 13.1579C8.67312 13.1579 8.49703 13.3342 8.49703 13.5508C8.49703 13.6596 8.40851 13.7481 8.2995 13.7481C8.19072 13.7481 8.10221 13.6596 8.10221 13.5508C8.10221 13.1162 8.45557 12.7631 8.88975 12.7631ZM10.9987 12.7631C11.4331 12.7631 11.7865 13.1162 11.7865 13.5508C11.7865 13.6596 11.698 13.7481 11.589 13.7481C11.4802 13.7481 11.3917 13.6596 11.3917 13.5508C11.3917 13.3342 11.2153 13.1579 10.9987 13.1579C10.7821 13.1579 10.6058 13.3342 10.6058 13.5508C10.6058 13.6596 10.5172 13.7481 10.4082 13.7481C10.2995 13.7481 10.2109 13.6596 10.2109 13.5508C10.2109 13.1162 10.5643 12.7631 10.9987 12.7631ZM7.0603 23.2115L9.7509 24.7649L9.75206 24.7656C9.81542 24.8021 9.88553 24.8203 9.95634 24.8203C10.0269 24.8203 10.0973 24.8021 10.1606 24.7656L10.1618 24.7649L12.8752 23.1984L15.8644 21.4724C15.9909 21.3995 16.0689 21.2646 16.0689 21.1186V14.9643V14.6601V14.5322C16.0689 14.3861 15.9909 14.2513 15.8647 14.1784L10.1606 10.8852C10.0973 10.8486 10.0269 10.8304 9.95634 10.8304C9.88553 10.8304 9.81542 10.8486 9.75206 10.8852L4.04803 14.1784C3.92155 14.2513 3.84375 14.3861 3.84375 14.5322V14.6601V14.9643V21.1186C3.84375 21.2646 3.92155 21.3995 4.04803 21.4724L5.55999 22.3454L7.03748 23.1984L7.0603 23.2115Z" fill="#BE4F4F"/>
<path d="M12.1847 16.3613C12.0585 16.1846 11.9122 16.0236 11.7489 15.881C11.263 15.4573 10.6299 15.1986 9.93599 15.1986C9.24232 15.1986 8.60898 15.4573 8.12331 15.881C7.9598 16.0236 7.81352 16.1846 7.6875 16.3613C8.23209 16.6253 9.03664 16.793 9.93599 16.793C10.8356 16.793 11.6399 16.6253 12.1847 16.3613Z" fill="white"/>
<path d="M40.5117 22L36.3516 7.44922H39.7109L42.123 17.5566H42.25L44.8965 7.44922H47.7773L50.4141 17.5859H50.5508L52.9531 7.44922H56.3223L52.1523 22H49.1543L46.3906 12.4883H46.2734L43.5195 22H40.5117ZM61.0195 7.44922V22H57.9531V7.44922H61.0195ZM68.7148 22H63.5586V7.44922H68.7539C70.2188 7.44922 71.4785 7.74219 72.5332 8.32812C73.5879 8.90755 74.3984 9.74089 74.9648 10.8281C75.5378 11.9089 75.8242 13.2044 75.8242 14.7148C75.8242 16.2318 75.5378 17.5339 74.9648 18.6211C74.3984 19.7083 73.5846 20.5449 72.5234 21.1309C71.4622 21.7103 70.1927 22 68.7148 22ZM66.625 19.3633H68.5781C69.9518 19.3633 70.9935 18.9954 71.7031 18.2598C72.4128 17.5241 72.7676 16.3424 72.7676 14.7148C72.7676 13.1003 72.4128 11.9251 71.7031 11.1895C70.9935 10.4538 69.9518 10.0859 68.5781 10.0859H66.625V19.3633ZM84.7109 22.1953C83.3503 22.1953 82.1523 21.8958 81.1172 21.2969C80.0885 20.6914 79.2845 19.832 78.7051 18.7188C78.1322 17.599 77.8457 16.2741 77.8457 14.7441C77.8457 13.1686 78.1452 11.8242 78.7441 10.7109C79.3431 9.59115 80.1569 8.73503 81.1855 8.14258C82.2142 7.55013 83.3698 7.25391 84.6523 7.25391C85.7526 7.25391 86.7454 7.46224 87.6309 7.87891C88.5228 8.29557 89.252 8.87174 89.8184 9.60742C90.3913 10.3431 90.7428 11.1927 90.873 12.1562H87.7578C87.556 11.4727 87.1947 10.9388 86.6738 10.5547C86.153 10.1641 85.4954 9.96875 84.7012 9.96875C83.5879 9.96875 82.6862 10.3822 81.9961 11.209C81.306 12.0293 80.9609 13.1979 80.9609 14.7148C80.9609 16.2318 81.2995 17.4069 81.9766 18.2402C82.6602 19.0671 83.5814 19.4805 84.7402 19.4805C85.7559 19.4805 86.5534 19.2168 87.1328 18.6895C87.7188 18.1556 88.0215 17.4362 88.041 16.5312H84.9258V14.2168H91.0195V16.0527C91.0195 17.3288 90.7493 18.4258 90.209 19.3438C89.6686 20.2617 88.9232 20.9681 87.9727 21.4629C87.0221 21.9512 85.9349 22.1953 84.7109 22.1953ZM93.3242 22V7.44922H103.129V9.98828H96.3906V13.4062H102.611V15.8965H96.3906V19.4609H103.148V22H93.3242ZM105.014 9.98828V7.44922H116.957V9.98828H112.523V22H109.457V9.98828H105.014Z" fill="black"/>
<path d="M118.949 7.44922H122.738L126.742 17.2246H126.908L130.922 7.44922H134.74V22H131.723V12.5273H131.615L127.836 21.9316H125.795L122.055 12.5078H121.928V22H118.949V7.44922ZM139.77 22H136.469L141.498 7.44922H145.453L150.473 22H147.182L146.098 18.6797H140.844L139.77 22ZM141.625 16.2773H145.316L143.529 10.7695H143.412L141.625 16.2773ZM152.211 22V7.44922H155.277V13.8652H155.463L160.707 7.44922H164.389L158.998 13.9629L164.457 22H160.766L156.791 16.0234L155.277 17.8691V22H152.211ZM166.02 22V7.44922H175.824V9.98828H169.086V13.4062H175.307V15.8965H169.086V19.4609H175.844V22H166.02ZM178.266 22V7.44922H183.988C185.642 7.44922 186.924 7.88216 187.836 8.74805C188.754 9.61393 189.213 10.7663 189.213 12.2051C189.213 13.2012 188.992 14.054 188.549 14.7637C188.106 15.4668 187.471 15.9941 186.645 16.3457L189.73 22H186.332L183.578 16.8438H181.332V22H178.266ZM181.332 14.373H183.412C185.17 14.373 186.049 13.6504 186.049 12.2051C186.049 11.4824 185.831 10.929 185.395 10.5449C184.958 10.1608 184.294 9.96875 183.402 9.96875H181.332V14.373ZM196.801 22.2051C195.036 22.2051 193.627 21.8014 192.572 20.9941C191.524 20.1868 190.977 18.9987 190.932 17.4297H193.91C193.962 18.1589 194.249 18.709 194.77 19.0801C195.297 19.4447 195.961 19.627 196.762 19.627C197.543 19.627 198.168 19.4609 198.637 19.1289C199.112 18.7969 199.35 18.3639 199.35 17.8301C199.35 17.3418 199.135 16.9674 198.705 16.707C198.275 16.4401 197.663 16.2122 196.869 16.0234L195.277 15.6328C194.053 15.3398 193.087 14.8743 192.377 14.2363C191.674 13.5918 191.322 12.7324 191.322 11.6582C191.322 10.7793 191.56 10.0111 192.035 9.35352C192.51 8.68945 193.161 8.17513 193.988 7.81055C194.822 7.43945 195.769 7.25391 196.83 7.25391C197.911 7.25391 198.855 7.43945 199.662 7.81055C200.469 8.18164 201.098 8.69596 201.547 9.35352C202.003 10.0111 202.237 10.7695 202.25 11.6289H199.281C199.229 11.0625 198.988 10.6198 198.559 10.3008C198.129 9.98177 197.546 9.82227 196.811 9.82227C196.062 9.82227 195.486 9.97852 195.082 10.291C194.678 10.597 194.477 10.9876 194.477 11.4629C194.477 11.9772 194.701 12.3678 195.15 12.6348C195.6 12.8952 196.14 13.1003 196.771 13.25L198.07 13.5723C198.917 13.7611 199.669 14.0378 200.326 14.4023C200.984 14.7604 201.501 15.2227 201.879 15.7891C202.257 16.349 202.445 17.0326 202.445 17.8398C202.445 19.1745 201.947 20.2357 200.951 21.0234C199.955 21.8112 198.572 22.2051 196.801 22.2051Z" fill="#999999"/>
</g>
<defs>
<clipPath id="clip0_3371_1148">
<rect width="203" height="29" fill="white"/>
</clipPath>
</defs>
</svg>
