<svg width="300" height="100" viewBox="0 0 300 100" fill="none" xmlns="http://www.w3.org/2000/svg">
<path fill-rule="evenodd" clip-rule="evenodd" d="M98.0724 10.3841C91.8497 11.8517 82.9638 19.9386 76.1859 30.3031C67.0995 44.1978 61.6263 59.1803 61.0495 71.7373C60.8031 77.1013 61.4566 80.5736 63.4562 84.5279C66.5385 90.624 70.6491 91.5828 76.728 87.6236C79.7306 85.6679 85.8058 79.3331 89.7038 74.0922L93.086 69.5448L93.534 71.064C94.1537 73.1654 95.7455 74.7502 97.2368 74.7502C98.5976 74.7502 99.1265 74.2421 101.839 70.3281L103.728 67.6011L103.884 70.0419C104.139 74.0516 106.323 75.9474 108.282 73.8599L109.15 72.9353L110.486 73.8429C113.233 75.709 118.226 74.6511 121.216 71.5694C123.096 69.6314 123.928 67.7585 123.937 65.4466C123.943 63.7018 124.041 63.4619 124.834 63.2626C125.324 63.1395 125.788 63.1015 125.864 63.1779C125.941 63.2544 125.396 65.1325 124.654 67.3518C123.225 71.6225 123.209 72.4476 124.527 74.1243C126.11 76.1391 126.368 75.7433 129.458 66.5568C134.146 52.6183 140.315 35.4286 140.799 34.9545C141.101 34.6589 144.235 34.4257 150.322 34.2457L159.394 33.978L160.186 32.3476C160.69 31.3082 160.836 30.6303 160.59 30.4778C160.377 30.3464 156.277 30.2737 151.479 30.3166C146.68 30.3595 142.575 30.3757 142.355 30.3528C142.133 30.3294 142.848 27.6819 143.969 24.3795C146.001 18.3949 146.433 15.338 145.301 14.9651C144.744 14.7813 144.432 15.4551 141.149 23.9087L138.591 30.4993L130.608 30.6009C121.674 30.7147 121.873 30.6375 123.572 33.3313L124.517 34.8302H130.532C133.84 34.8302 136.547 34.9093 136.547 35.0057C136.547 35.1021 134.95 39.3811 132.999 44.5149C131.047 49.6484 128.871 55.4587 128.162 57.4264L126.874 61.0041L125.007 61.1156C122.902 61.2414 123.034 61.3973 121.273 56.7225C120.17 53.796 120.108 51.3465 121.096 49.7505C121.968 48.3416 124.723 46.2036 127.397 44.8614C129.526 43.7926 130.054 43.2447 129.495 42.685C128.99 42.1789 124.604 43.2398 122.233 44.4423C118.89 46.1381 116.276 48.992 115.461 51.8372C114.994 53.4676 115.571 55.4873 117.399 58.6218C118.205 60.0043 118.864 61.2953 118.864 61.49C118.864 61.685 117.882 62.2032 116.683 62.6409C115.483 63.0789 113.681 63.9808 112.679 64.6451C110.877 65.8405 108.707 68.6854 108.707 69.8528C108.707 70.5179 108.004 71.3607 107.45 71.3607C106.318 71.3607 108.982 61.908 112.158 54.6539C113.264 52.1276 113.518 51.1944 113.203 50.8136C112.935 50.4905 112.878 49.5739 113.043 48.2508C113.532 44.3315 111.972 42.0248 109.178 42.5363C106.967 42.9411 104.884 44.362 102.078 47.3798C98.2078 51.5416 94.946 57.5258 93.6251 62.8872C93.2692 64.3318 92.4302 65.6635 90.0209 68.6078C85.5142 74.1152 82.6279 76.9205 78.9853 79.3334C74.0448 82.6061 70.9474 83.3759 68.5656 81.9222C66.8926 80.9012 66.2417 79.7549 65.7511 76.9669C65.2191 73.9431 65.7914 68.5095 67.1774 63.4283C70.0242 52.9912 79.1234 34.4739 85.7794 25.5725C91.437 18.0062 97.9663 12.9872 102.152 12.9872C103.852 12.9872 104.568 13.8297 104.568 15.8302C104.568 18.0951 103.301 21.2533 99.891 27.4864C98.3045 30.3863 96.1262 34.5323 95.0502 36.7C93.2933 40.2386 93.0935 40.8928 93.0935 43.1023C93.0935 45.0347 93.2846 45.8711 93.9825 46.9949C94.5137 47.8501 95.1119 48.3804 95.4678 48.3119C95.8467 48.2388 96.7834 46.3588 98.0381 43.1543C99.1239 40.3806 101.383 35.1778 103.059 31.5922C106.82 23.5453 107.946 20.3321 108.194 16.9415C108.349 14.8122 108.249 14.0519 107.672 12.9872C106.281 10.4203 102.391 9.36541 98.0724 10.3841ZM167.339 21.5399C166.402 22.5454 164.462 25.5586 162.421 29.1812C160.088 33.3208 155.812 43.1403 152.551 51.8497C149.946 58.804 147.931 62.0869 143.319 66.8882C140.495 69.8272 139.057 70.4377 138.009 69.1418C136.717 67.5454 136.644 63.4521 137.907 63.4521C140.247 63.4521 144.971 58.9686 147.668 54.1876C151.571 47.2679 151.297 42.7389 146.974 42.7389C143.387 42.7389 139.172 47.1967 135.406 54.9725C132.94 60.063 132.032 63.5251 132.032 67.8327C132.032 72.8276 133.793 75.1181 137.274 74.6507C140.093 74.2723 143.368 71.2086 147.636 64.9585C148.972 63.0024 149.033 62.9606 148.724 64.2053C148.117 66.6551 148.371 70.2837 149.271 72.0141C150.183 73.7691 151.562 74.8839 152.415 74.5562C153.199 74.2549 155.355 71.5875 157.61 68.1306C158.677 66.4943 159.58 65.1249 159.617 65.088C159.654 65.0511 159.684 66.689 159.684 68.7275C159.684 71.9042 159.797 72.5858 160.474 73.498C162.112 75.703 162.973 75.1117 166.877 69.1011L168.712 66.2766L168.932 68.5362C169.202 71.2978 170.061 73.046 171.523 73.8023C175.835 76.0348 181.882 70.6324 185.504 61.3111C186.415 58.9671 187.055 57.9092 187.998 57.1891C188.696 56.6566 189.319 56.28 189.384 56.3527C189.448 56.4254 188.48 59.1117 187.232 62.3223C184.565 69.1859 184.206 71.4089 185.441 73.4095C186.753 75.5346 187.452 75.2108 188.64 71.9256C190.884 65.7215 194.021 60.33 200.255 51.9657C203.342 47.8234 203.371 47.8091 201.817 51.2125C197.936 59.7101 195.987 65.6175 195.992 68.8608C195.996 70.8199 197.383 73.9412 198.759 75.0835C199.709 75.8736 200.004 75.3128 200.261 72.2198C200.682 67.1771 203.092 58.5894 206.134 51.293C207.144 48.8711 207.314 48.0731 207.109 46.7064C206.844 44.9367 205.679 43.1155 204.811 43.1155C204.108 43.1155 200.71 47.2683 197.415 52.154C195.949 54.3288 194.593 56.2778 194.403 56.4849C193.997 56.9263 195.201 53.5964 196.987 49.3407C197.68 47.6901 198.246 45.8259 198.245 45.1981C198.243 43.822 196.844 41.356 196.347 41.8535C196.158 42.0429 194.987 44.3959 193.746 47.0819C192.031 50.7956 191.196 52.1743 190.26 52.8364C187.653 54.6802 187.753 54.7378 187.83 51.4418C187.884 49.1728 187.757 48.3036 187.294 47.7695C186.96 47.3847 186.577 46.488 186.443 45.7766C185.76 42.1615 182.263 42.1785 178.135 45.8165C175.682 47.9771 172.225 53.3768 170.591 57.5974C169.329 60.8599 166.763 65.3464 164.66 67.9713L163.906 68.9128L164.151 67.0298C164.675 63.0152 166.444 57.9318 169.162 52.6274C170.674 49.677 171.911 46.9418 171.911 46.549C171.911 46.1566 171.583 45.435 171.183 44.9461C170.213 43.7617 170.11 43.88 166.062 50.8359C160.186 60.9315 153.713 69.6446 152.975 68.45C152.49 67.6648 155.745 56.1719 157.324 53.0955C157.537 52.6812 158.531 51.6132 159.533 50.7217C161.803 48.7035 165.032 43.889 167.064 39.4948C169.519 34.1828 169.47 34.4536 167.972 34.4536C166.699 34.4536 166.657 34.509 164.016 39.6319C161.324 44.8558 159.139 48.139 159.693 46.1283C160.774 42.2105 167.34 27.2609 168.707 25.6034C169.303 24.8818 169.32 24.9139 169.118 26.3566C168.679 29.5009 168.17 30.6876 167.26 30.6876C166.654 30.6876 166.224 31.0728 165.773 32.0185C165.424 32.7506 165.139 33.5362 165.139 33.764C165.139 34.1787 190.879 33.9414 207.276 33.3758C211.104 33.2436 214.997 33.2372 215.929 33.3615L217.622 33.5874L216.063 33.6439C214.713 33.6929 214.472 33.8333 214.256 34.6965C213.821 36.4315 214.599 36.6413 216.884 35.4041C218.014 34.7922 218.938 34.1587 218.938 33.996C218.938 33.8333 222.621 33.6842 227.121 33.6642C234.934 33.6296 238.83 33.2172 238.995 32.4068C239.17 31.5425 235.112 31.0785 227.309 31.0713C222.912 31.0676 219.314 30.9373 219.314 30.7817C219.313 30.2518 215.919 28.3511 215.359 28.5662C215.035 28.6908 214.8 29.2602 214.8 29.9227C214.8 30.9824 214.901 31.0676 216.211 31.1112L217.622 31.1583L216.117 31.3937C215.289 31.5233 210.549 31.5221 205.583 31.3914C200.617 31.2608 190.66 31.0273 183.458 30.8725C171.913 30.6247 170.389 30.523 170.584 30.0131C170.706 29.6952 171.001 28.2931 171.241 26.8978C171.653 24.4913 171.627 24.2665 170.738 22.5341C169.612 20.34 168.705 20.0745 167.339 21.5399ZM172.91 37.1399C171.951 37.698 170.801 40.3787 170.791 42.0798C170.784 43.3211 170.892 43.4921 171.684 43.4921C173.101 43.4921 175.673 40.2149 175.673 38.4102C175.673 37.7745 174.646 36.7091 174.048 36.7245C173.804 36.7309 173.292 36.9177 172.91 37.1399ZM147.833 46.2782C147.833 48.5589 144.212 54.4671 140.128 58.8511C139.025 60.0351 138.005 60.8878 137.86 60.7458C137.533 60.4234 138.971 55.9889 140.218 53.4721C142.207 49.4582 145.955 45.0151 147.363 45.0026C147.648 45 147.833 45.5031 147.833 46.2782ZM184.314 46.2225C184.305 47.263 184.051 47.5993 182.623 48.4666C179.467 50.3835 177.693 54.4735 178.833 57.2038C179.478 58.7505 181.365 59.7998 182.818 59.4194C183.615 59.2108 183.663 59.2812 183.416 60.2867C183.012 61.9317 180.69 66.5248 179.722 67.5947C177.241 70.336 175.481 70.8749 174.227 69.2785C172.649 67.2697 172.873 63.2035 174.89 57.2682C176.347 52.9776 178.001 50.1813 180.753 47.3523C183.37 44.6614 184.333 44.356 184.314 46.2225ZM110.386 47.4916C110.375 49.1212 109.929 50.3154 107.506 55.212C104.733 60.8147 100.854 66.7846 98.7266 68.7245L97.6943 69.666L97.9531 67.5947C98.5114 63.1316 101.053 55.7648 103.529 51.4328C105.254 48.4139 108.383 45.2779 109.511 45.4376C110.315 45.5514 110.398 45.7468 110.386 47.4916ZM184.975 53.3275C184.86 54.594 184.603 55.7938 184.403 55.9934C183.86 56.5372 181.078 56.8235 180.794 56.3644C180.374 55.6846 181.726 52.9358 182.959 51.963C184.881 50.4464 185.215 50.6728 184.975 53.3275ZM119.617 64.9773C119.617 66.4675 116.427 69.8724 114.132 70.8324C110.658 72.2853 109.773 70.5913 112.671 68.0376C113.61 67.2102 115.43 66.1026 116.715 65.5761C119.387 64.4817 119.617 64.4343 119.617 64.9773Z" fill="black"/>
</svg>
