<svg width="300" height="100" viewBox="0 0 300 100" fill="none" xmlns="http://www.w3.org/2000/svg">
<path d="M0 78.4779C2.19344 75.6459 5.34003 74.4871 8.4034 73.2533C15.7855 70.2799 23.4452 68.1451 31.0734 65.9228C36.4516 64.3559 41.823 62.7628 47.2231 61.2745C50.7432 60.3042 54.3382 59.6019 57.8492 58.6026C66.5626 56.1227 75.3599 53.9646 84.1102 51.6278C84.5776 51.503 85.0516 51.4026 85.5712 50.8552C84.079 49.1207 82.5866 47.4381 80.9103 45.8982C76.8906 42.2058 72.7542 38.6213 68.9635 34.7043C65.0709 30.6822 66.1225 24.5927 69.6259 21.4752C76.7587 15.1281 84.7586 10.1601 93.5044 6.37198C99.7998 3.64527 106.342 1.82388 113.278 1.05372C115.436 1 117.493 1 119.687 1C120.93 2.43131 120.744 3.96758 119.98 5.40779C117.041 10.948 112.95 15.5687 108.289 19.7062C107.554 20.3588 106.611 20.7086 105.593 20.6918C104.279 20.67 103.407 20.0081 102.903 18.7996C102.423 17.6504 103.04 16.899 103.843 16.2881C106.578 14.2066 108.931 11.738 111.18 9.1622C111.967 8.26178 112.814 7.39711 113.525 6.12781C111.511 6.13597 109.864 6.73539 108.199 7.16566C101.72 8.84041 95.8633 11.9872 89.9652 15.0138C85.1064 17.5071 80.4921 20.4057 76.1463 23.7255C75.0435 24.5679 74.2654 25.698 73.3914 26.7294C72.4757 27.8099 72.7516 29.7388 73.91 31.2099C76.4539 34.4404 79.4425 37.2558 82.3693 40.1258C84.4915 42.2068 86.7526 44.1593 88.7415 46.3591C90.4784 48.2801 92.0906 49.0246 94.8307 48.2007C101.547 46.1811 108.391 44.5871 115.342 43.5252C118.98 42.9694 119.956 43.9164 119.217 47.5428C118.721 49.9756 118.008 52.3634 117.428 54.7799C117.253 55.5084 116.997 56.2599 117.383 57.3348C118.51 56.2428 119.779 55.6647 120.955 54.9169C125.647 51.9351 130.347 48.9618 135.578 46.971C135.806 46.8842 136.035 46.7972 136.267 46.7249C139.987 45.57 141.466 46.7639 141.138 50.6126C140.973 52.5512 140.815 54.4948 140.999 56.5801C142.09 56.149 142.877 55.445 143.681 54.7908C145.588 53.2395 147.672 51.9896 149.905 50.9757C151.16 50.4057 152.548 50.256 153.454 51.3098C155.776 54.0118 158.584 53.9962 161.708 53.3422C165.475 52.5537 169.283 51.9599 173.068 51.2572C173.667 51.146 174.406 51.1113 174.531 50.2862C174.98 47.3096 177.15 46.6325 179.651 46.5379C182.391 46.4343 184.872 47.1315 186.694 49.3737C187.508 50.376 187.763 51.5332 187.479 52.8883C189.54 53.4605 191.564 53.9155 193.214 55.3721C196.363 58.1519 196.911 61.8647 194.403 65.2644C193.104 67.0248 191.623 68.6509 190.307 70.4944C190.952 70.0722 191.6 69.6537 192.243 69.2273C198.258 65.2345 203.965 60.7888 210.171 57.0741C211.375 56.3535 212.434 55.4179 213.761 54.8546C214.847 54.3935 215.27 53.3659 215.198 52.1941C215.042 49.6483 218.392 45.8896 221.276 45.5772C223.3 45.3579 224.929 46.8397 225.119 48.8751C225.419 52.0906 223.52 53.917 221.019 55.544C222.374 56.8681 223.983 57.3472 225.668 57.4837C228.729 57.7317 231.798 57.9043 234.868 58.0198C238.817 58.1683 242.75 58.3878 246.63 59.2229C249.202 59.7765 249.167 59.7126 250.137 57.1927C251.763 52.965 253.157 48.6486 255.576 44.7459C257.907 40.9848 261.158 39.2723 265.544 39.2381C270.244 39.2014 274.852 40.1605 279.537 40.256C283.487 40.3365 287.433 40.5458 291.385 40.3217C291.787 40.2989 292.192 40.3288 292.389 39.8974C292.935 38.697 293.997 38.7673 295.021 38.8612C296.949 39.0381 298.522 39.9439 299.906 41.398C300 42.4144 300 43.3992 300 44.5181C298.239 45.6459 296.278 45.4084 294.411 45.389C287.241 45.3143 280.068 45.177 272.926 44.4209C269.683 44.0775 266.449 43.5246 263.193 44.4013C261.657 44.8147 260.336 45.5312 259.575 46.9243C258.368 49.1365 257.229 51.3613 256.329 53.7585C255.097 57.0403 253.937 60.3333 252.87 63.6701C252.372 65.2269 250.842 65.8389 249.126 65.0509C243.136 62.3002 236.771 62.0794 230.362 61.9994C228.316 61.9739 226.267 61.8637 224.225 61.7166C221.859 61.5461 219.744 60.6522 218.048 59.0073C217.182 58.1679 216.599 58.2897 215.675 58.8764C209.62 62.7212 203.768 66.8528 197.928 71.0149C184.975 80.2459 172.275 89.8157 159.441 99.3659C155.756 99.4375 152.136 99.4375 148.379 99.4375C149.948 97.498 151.944 95.8712 153.895 94.1981C159.448 89.436 165.082 84.7669 171.072 80.5622C173.907 78.5717 176.794 76.6329 179.409 74.3796C183.229 71.0886 187.346 68.0418 189.826 63.4468C191.431 60.4726 190.78 58.5855 187.685 57.3057C185.8 56.5261 183.811 56.3019 181.822 56.1881C174.57 55.7732 167.411 56.2388 160.461 58.6C158.896 59.1315 157.278 59.4916 155.578 59.1805C153.781 58.8519 152.219 58.1182 151.092 56.6675C150.504 55.91 149.959 55.8012 149.094 56.1929C146.917 57.1783 145.339 58.9684 143.422 60.2999C142.731 60.7802 142.046 61.2098 141.257 61.4771C139.002 62.2413 137.314 61.2891 136.717 58.9617C136.298 57.325 136.469 55.6626 136.426 54.0088C136.389 52.5929 136.065 52.3332 134.745 52.8618C131.614 54.1161 128.775 55.9177 125.857 57.5872C122.607 59.4471 119.488 61.5759 115.951 62.9013C114.146 63.5776 112.599 62.7417 111.879 60.6709C111.053 58.2936 111.227 55.8696 111.721 53.4499C112.029 51.9411 112.333 50.4313 112.673 48.7522C106.794 49.6866 101.171 51.14 95.488 52.5784C98.2082 56.7731 95.438 59.9824 91.6727 61.8771C87.9338 63.7585 83.9797 65.1897 79.9695 66.4432C70.3892 69.4379 60.701 72.0297 50.9309 74.3185C40.7352 76.707 30.4939 78.8619 20.1453 80.5049C14.4175 81.4143 8.71063 82.4224 2.89242 82.5488C1.87146 82.571 0.958475 82.3643 0.0900536 81.6238C-1.74623e-08 80.5817 0 79.5969 0 78.4779ZM9.87774 76.8941C9.84804 76.9704 9.81835 77.0466 9.78865 77.1229C9.88414 77.1258 9.98102 77.1407 10.0749 77.1298C16.713 76.36 23.2711 75.0982 29.7851 73.6584C37.923 71.8597 46.0842 70.1592 54.1494 68.029C64.5682 65.2772 74.9957 62.5701 85.0292 58.5724C86.113 58.1405 87.1513 57.5808 88.1737 57.0136C88.768 56.6839 89.4262 56.2108 89.1391 55.4173C88.8577 54.6396 88.1134 54.6229 87.3926 54.7889C87.25 54.8217 87.1091 54.863 86.9659 54.8933C75.8979 57.2341 64.9424 60.0366 53.9912 62.8637C44.4542 65.3257 34.9853 68.0194 25.5776 70.9294C20.27 72.5711 14.9886 74.2967 9.87774 76.8941ZM179.071 50.9965C180.047 50.9887 181.053 51.2176 182.245 50.5863C180.907 50.3135 179.833 49.7351 179.071 50.9965Z" fill="black"/>
<path d="M135.5 16.9976C136.01 17.9675 135.893 18.8023 135.331 19.568C134.654 20.4903 133.558 20.6345 132.836 19.8107C131.813 18.6413 130.782 17.4578 130.088 16.0453C129.899 15.6612 129.746 15.2202 129.729 14.7992C129.693 13.8784 130.005 13.0456 130.815 12.539C131.571 12.0659 132.22 12.5793 132.838 12.9459C134.34 13.8373 134.665 15.5245 135.5 16.9976Z" fill="black"/>
</svg>
