<svg width="300" height="100" viewBox="0 0 300 100" fill="none" xmlns="http://www.w3.org/2000/svg">
<path d="M109.49 16.0868C110.978 15.8388 112.294 16.0963 112.819 17.1966C113.075 17.734 113.119 18.4369 112.935 19.3031C112.749 20.1706 112.331 21.2208 111.636 22.4712C108.778 27.6154 105.167 31.8793 100.575 36.0492C99.8175 36.737 99.5331 37.0777 98.9435 37.6869C98.3726 38.2768 97.5292 39.102 95.7209 40.7064C97.9618 43.173 99.3237 46.4982 99.324 50.6696C99.3237 65.4742 81.5795 84.3752 49.9473 84.3752C35.3335 84.3752 26.7562 80.5165 23.1666 75.3127C15.4618 77.2157 8.84131 78.4636 2.2913 79.1258L2.17137 79.1384L0 76.3829L0.258796 76.0438C0.258796 76.0438 0.278483 76.0511 0.292077 76.0559C0.319778 76.0654 0.365474 76.0797 0.431518 76.0971C0.563883 76.1324 0.778519 76.18 1.09601 76.2263C1.73125 76.3187 2.77726 76.4045 4.40297 76.3703C7.62022 76.3025 13.0981 75.7644 22.1383 73.8886C21.2174 72.2445 21.1203 70.7649 21.1203 69.0017C21.1204 64.176 24.2081 59.1456 29.6222 55.3315C35.0412 51.5139 42.8113 48.8972 52.239 48.8972C55.9817 48.8972 60.2537 49.2116 64.041 50.2445C67.7425 51.2542 71.0147 52.9602 72.8561 55.7647C80.3311 51.1816 88.0634 45.7623 93.045 41.6078C91.1591 38.7607 87.8328 36.989 83.8351 36.1186C75.938 40.4659 66.5423 44.4592 58.9655 44.4592C57.5495 44.4592 56.497 44.2919 55.79 43.9777C55.074 43.6595 54.6795 43.1094 54.6795 42.4772C54.6795 41.3262 55.4151 40.2917 56.6178 39.3085C57.8258 38.3211 59.5408 37.4164 61.5862 36.6494C65.6786 35.1147 71.1383 34.1131 76.6318 34.113C78.6085 34.113 78.6685 34.113 80.543 34.2571C81.7832 33.5315 84.6466 31.5103 87.7274 29.2975C90.8494 27.0552 94.1858 24.6247 96.2424 23.1851C101.733 19.3414 105.061 16.8251 109.49 16.0868ZM93.5645 42.5948C89.9852 45.7214 85.8434 48.9804 81.5565 51.7418L81.5549 51.7429C78.8128 53.4744 76.1975 55.2138 73.4513 56.8136C74.1437 58.146 74.487 59.7405 74.487 61.4617C74.487 62.8934 74.1863 63.8882 73.7144 64.5304C73.238 65.1792 72.5988 65.4521 71.9753 65.4521C71.4406 65.4521 70.9116 65.2473 70.5142 64.9214C70.1174 64.5957 69.8333 64.1317 69.8333 63.6054C69.8333 62.8454 70.0193 62.29 70.3077 61.8473C70.5918 61.411 70.9687 61.096 71.3187 60.8104C71.6763 60.5187 72.0017 60.2606 72.2443 59.9221C72.4803 59.5929 72.642 59.1804 72.642 58.5787C72.642 58.1626 72.5907 57.7535 72.452 57.3468C65.1759 61.5934 56.9221 65.623 44.3926 69.3599C36.912 71.6112 30.4261 73.5067 24.5174 74.9759C27.569 79.1162 34.0116 82.0869 44.5515 82.0869C58.2453 82.0866 70.7653 76.8772 79.8614 69.908C84.409 66.4234 88.0965 62.503 90.6448 58.5804C93.1946 54.6558 94.596 50.7422 94.596 47.2693C94.596 45.4944 94.2104 43.917 93.5645 42.5948ZM52.9039 50.003C43.2585 50.003 35.6538 52.5432 30.4668 56.1814C25.2757 59.8224 22.5217 64.5492 22.5216 68.9278C22.5216 70.6873 22.8178 71.9881 23.6934 73.5156C45.8969 68.3009 58.9044 63.9025 69.1986 57.9476C69.6833 57.6492 70.1872 57.3693 70.6933 57.084C71.1439 56.8298 71.5981 56.5698 72.0521 56.2845C70.9654 54.3759 68.4806 52.8178 65.1341 51.7291C61.6958 50.6105 57.3951 50.003 52.9039 50.003ZM76.1894 35.2538C71.1142 35.2538 66.0393 36.2204 62.2386 37.6071C60.3372 38.3008 58.7652 39.0959 57.6731 39.9202C56.5699 40.753 56.0276 41.513 56.0276 42.1482C56.0276 42.442 56.2294 42.6853 56.4544 42.7922C56.7856 42.9495 57.2867 43.0573 57.9309 43.0573C65.7114 43.0572 71.432 39.3777 78.4401 35.3491C77.7295 35.2545 77.4249 35.2538 76.1894 35.2538ZM109.526 21.1004C108.861 21.1005 107.875 21.4343 106.628 22.0414C105.39 22.6438 103.926 23.4985 102.316 24.5043C99.0872 26.521 95.3187 29.114 91.6088 31.4884C89.8156 32.6608 87.7664 33.8955 85.582 35.135C89.2286 36.0286 92.4834 37.5237 94.9684 39.8732L96.216 38.757C98.0989 36.9481 101.643 33.4232 104.714 29.9918C106.251 28.2756 107.665 26.5864 108.695 25.1499C109.209 24.4314 109.625 23.7806 109.91 23.2241C110.199 22.6606 110.341 22.2205 110.341 21.9152C110.341 21.4983 110.049 21.1004 109.526 21.1004Z" fill="black"/>
<path d="M152.606 44.3182H152.609L152.609 44.3188C152.81 44.3227 152.958 44.4351 153.049 44.5867C153.137 44.731 153.181 44.9176 153.203 45.1124C153.247 45.5056 153.206 46.0201 153.119 46.5388C153.031 47.0608 152.894 47.6039 152.737 48.059C152.659 48.2865 152.575 48.4956 152.488 48.6707C152.402 48.8419 152.307 48.9958 152.202 49.1003C152.141 49.1617 152.001 49.2735 151.819 49.413C151.63 49.5574 151.382 49.7417 151.094 49.953C150.516 50.3756 149.772 50.908 149.005 51.4469C147.479 52.5193 145.844 53.6304 145.275 53.9342L145.191 53.979L144.422 53.7226L144.528 53.4982L144.53 53.4948C144.531 53.4929 144.532 53.4895 144.534 53.4856C144.538 53.4774 144.544 53.4657 144.551 53.45C144.566 53.4189 144.588 53.3729 144.616 53.3141C144.672 53.1961 144.753 53.0254 144.853 52.8172C145.053 52.3997 145.328 51.8283 145.629 51.2132C146.228 49.9861 146.934 48.574 147.346 47.8637L147.352 47.853L147.36 47.8421C147.817 47.2334 148.179 46.898 148.606 46.5671C149.022 46.2454 149.767 45.6768 150.525 45.1942C150.903 44.9535 151.289 44.7307 151.641 44.5707C151.98 44.4166 152.318 44.3065 152.597 44.3182C152.6 44.3182 152.603 44.318 152.606 44.3182Z" fill="black"/>
<path d="M242.629 44.5419H242.633L242.632 44.5424C242.834 44.5464 242.981 44.6587 243.073 44.8103C243.16 44.9547 243.205 45.1413 243.227 45.336C243.271 45.7292 243.23 46.2437 243.142 46.7624C243.055 47.2845 242.917 47.8275 242.761 48.2826C242.682 48.5102 242.598 48.7192 242.511 48.8944C242.426 49.0656 242.331 49.2194 242.226 49.3239C242.165 49.3853 242.025 49.4971 241.842 49.6367C241.654 49.781 241.406 49.9654 241.117 50.1767C240.54 50.5992 239.795 51.1317 239.029 51.6706C237.502 52.743 235.868 53.8541 235.298 54.1578L235.214 54.2027L234.445 53.9463L234.552 53.7218L234.553 53.7185C234.554 53.7165 234.555 53.7131 234.557 53.7092C234.561 53.7011 234.567 53.6893 234.574 53.6736C234.589 53.6425 234.611 53.5966 234.639 53.5377C234.696 53.4197 234.777 53.2491 234.876 53.0409C235.076 52.6233 235.352 52.0519 235.652 51.4368C236.252 50.2097 236.958 48.7977 237.369 48.0873L237.375 48.0767L237.383 48.0657C237.84 47.4571 238.203 47.1216 238.63 46.7907C239.045 46.469 239.791 45.9004 240.548 45.4179C240.926 45.1771 241.312 44.9544 241.664 44.7944C242.003 44.6402 242.342 44.5301 242.621 44.5419C242.623 44.5419 242.627 44.5416 242.629 44.5419Z" fill="black"/>
<path fill-rule="evenodd" clip-rule="evenodd" d="M213.95 29.7314C214.534 29.7315 215.007 29.8677 215.332 30.1813C215.658 30.4965 215.797 30.9527 215.797 31.504C215.797 31.9464 215.764 32.3896 215.702 32.8324L215.701 32.8427L215.699 32.8531C215.084 35.4307 213.401 38.185 211.025 40.9641C208.646 43.7463 205.558 46.5694 202.111 49.2836C195.232 54.7001 186.902 59.6991 179.866 63.096L177.209 66.4461C178.884 65.5463 181.802 64.1636 184.992 62.6768C188.985 60.8152 193.423 58.7825 196.45 57.2998L196.489 57.2804L196.533 57.2774C198.918 57.1274 200.819 57.1283 203.003 56.6917L203.14 56.6645L203.735 57.4575L203.449 57.557C199.176 59.038 193.7 61.2742 189.112 63.2476C184.811 65.0976 181.309 66.7075 180.304 67.2473C180.326 67.2969 180.353 67.3563 180.383 67.4244C180.487 67.6561 180.639 67.9913 180.829 68.404C181.209 69.2301 181.743 70.3681 182.357 71.614C183.588 74.1111 185.134 77.0252 186.414 78.7466C187.113 79.6857 188 79.9393 188.855 79.8967C189.554 79.8616 190.23 79.6263 190.75 79.3945C190.591 78.9593 190.506 78.467 190.506 77.9152C190.506 76.3611 191.203 74.3801 192.448 72.2964C193.696 70.2073 195.508 67.9935 197.768 65.9705C202.288 61.9252 208.621 58.6236 215.859 58.6236C216.577 58.6236 217.126 58.7357 217.501 58.9713C217.893 59.2179 218.075 59.587 218.075 60.0267C218.075 60.373 217.952 60.7499 217.736 61.1394C217.52 61.5306 217.203 61.9476 216.799 62.3772C215.991 63.2361 214.816 64.1628 213.34 65.057C210.4 66.8373 206.241 68.5027 201.327 69.2514C199.357 71.1892 197.592 73.1575 196.318 74.8683C195.676 75.7308 195.161 76.5241 194.808 77.2118C194.452 77.9054 194.274 78.4681 194.274 78.8764C194.274 79.5806 194.552 80.0245 195.009 80.3052C195.484 80.597 196.175 80.7259 197.01 80.7259C205.906 80.7256 213.327 74.5614 221.299 65.8265C221.435 65.676 221.573 65.5244 221.713 65.3706L221.816 65.2582C221.946 65.1142 222.077 64.9699 222.207 64.8244L222.481 64.5193L222.483 64.5285C224.247 62.6123 226.326 60.4313 228.772 57.9454L228.838 57.8801H228.93C230.586 57.8801 232.262 57.7879 233.524 57.6957C234.156 57.6498 234.683 57.6035 235.053 57.5691C235.237 57.5517 235.382 57.5371 235.481 57.527C235.531 57.522 235.569 57.5184 235.594 57.5156L235.61 57.5142L235.623 57.5128C235.626 57.5125 235.629 57.5119 235.63 57.5116H235.633L235.785 57.4951L235.854 57.6321L236.158 58.2411L236.009 58.3512C234.025 59.821 230.115 63.2507 226.254 66.927C222.391 70.6052 218.598 74.5102 216.838 76.931L216.833 76.9369C216.584 77.2564 216.317 77.6851 216.112 78.1397C215.905 78.597 215.771 79.0633 215.771 79.4629C215.771 79.8308 215.871 80.1346 216.091 80.3481C216.314 80.5628 216.693 80.7205 217.324 80.7205C220.469 80.7205 224.72 79.2547 229.833 77.0028C234.94 74.7534 240.857 71.7438 247.339 68.6812C260.285 62.5638 275.44 56.2568 290.584 55.5657C292.019 55.5002 293.874 55.5035 295.367 55.5229C296.116 55.5324 296.774 55.5458 297.245 55.5571C297.48 55.5629 297.671 55.568 297.8 55.5716C297.864 55.5733 297.915 55.575 297.948 55.5761L297.988 55.5772H298.002L298.133 55.5817L298.192 55.6994L299.918 59.151L300.002 59.3191L299.848 59.4287L299.632 59.5825L299.532 59.6548L299.42 59.606C295.99 58.1472 292.501 58.0247 288.435 58.0247C275.961 58.0247 261.422 64.0084 248.268 70.017C241.7 73.0168 235.475 76.0237 230.048 78.2778C224.628 80.5291 219.96 82.0485 216.511 82.0485C215.521 82.0485 214.591 81.8201 213.908 81.2171C213.219 80.6093 212.817 79.654 212.817 78.28C212.817 77.8208 212.936 77.2286 213.302 76.4031C207.721 79.7933 202.104 82.053 195.901 82.053C194.437 82.053 193.093 81.7725 192.11 81.1103C191.963 81.0117 191.826 80.9038 191.697 80.7889C191.685 80.794 191.672 80.7998 191.658 80.8057C191.546 80.8506 191.384 80.9145 191.182 80.9898C190.778 81.1403 190.213 81.337 189.569 81.5223C188.292 81.8902 186.668 82.2228 185.379 82.0295C183.95 81.8154 183.326 80.9248 182.783 80.1511L182.776 80.1399L182.752 80.1066C182.538 79.8008 182.261 79.2914 182.042 78.8688C181.932 78.6555 181.723 78.2347 181.653 78.0931L180.016 74.8181L177.155 68.5601C176.878 68.6868 176.491 68.8799 176.091 69.1029C175.582 69.3873 175.07 69.7116 174.744 70.0005C174.356 70.3457 173.587 71.2007 173.203 71.6967C170.072 75.7412 166.279 79.8754 160.89 81.1563C158.63 81.8143 156.904 82.0732 155.075 82.0732C154.084 82.0732 153.155 81.8448 152.471 81.2418C151.783 80.634 151.38 79.6789 151.38 78.3047C151.38 77.8886 151.506 77.3001 151.688 76.6808C151.908 75.9402 152.398 74.8823 152.789 74.2283C155.024 70.2006 158.756 67.0141 161.637 64.6989C162.449 64.0459 163.228 63.451 163.937 62.9108L164.033 62.8373C164.705 62.3256 165.31 61.8644 165.822 61.4474C166.36 61.0097 166.786 60.6275 167.078 60.2934C167.365 59.9636 167.487 59.717 167.495 59.536C167.472 59.5262 167.425 59.5144 167.347 59.5144C166.932 59.5144 166.37 59.6386 165.679 59.8809C164.992 60.1219 164.192 60.4745 163.305 60.9167C161.53 61.8013 159.418 63.0397 157.181 64.4514C152.712 67.2708 147.753 70.7725 143.987 73.5047C141.992 75.647 139.828 78.1024 137.099 80.8321L137.034 80.8968C136.999 80.8926 133.185 80.4263 130.122 81.1706C128.163 81.7285 126.544 82.0485 124.961 82.0485C123.971 82.0485 123.041 81.8201 122.358 81.2171C122.09 80.9809 121.866 80.692 121.692 80.3464L120.15 80.797C117.585 81.5901 115.306 82.0558 113.395 82.0561C112.404 82.0558 111.475 81.8274 110.791 81.2244C110.103 80.6169 109.7 79.661 109.7 78.2871C109.7 77.3615 109.905 76.1996 111.928 73.3699C113.776 70.5408 116.659 67.6979 119.206 65.3227C120.696 63.9339 122.066 62.7082 123.071 61.7223C123.573 61.2302 123.975 60.8048 124.251 60.456C124.39 60.2814 124.492 60.1303 124.559 60.0042C124.619 59.891 124.685 59.7949 124.646 59.761C124.607 59.7274 124.559 59.7324 124.499 59.7397C124.196 59.777 123.422 59.877 122.65 60.141C121.882 60.4036 120.984 60.7855 119.988 61.2622C117.996 62.2152 115.629 63.5399 113.155 65.0214C108.214 67.98 102.866 71.5569 99.283 74.0315C97.39 75.8485 94.5581 78.3975 92.1711 79.763C89.7825 81.1291 87.3033 82.0558 85.1038 82.0561H85.1001C84.9564 82.0561 84.7361 82.0561 84.5501 82.025C84.4579 82.0096 84.3528 81.983 84.2648 81.9314C84.1832 81.8835 84.0955 81.7989 84.0748 81.6708L84.0703 81.6136L84.0726 81.5758C84.0821 81.4884 84.123 81.4023 84.176 81.3283C84.2379 81.2415 84.3287 81.1532 84.4514 81.0694C92.4567 74.9086 104.965 61.5547 116.111 50.4466C121.678 44.8978 127.032 39.729 131.559 35.9466C133.823 34.0557 135.885 32.5068 137.668 31.4294C139.443 30.3573 140.974 29.7314 142.166 29.7314C142.75 29.7315 143.223 29.8676 143.548 30.1813C143.874 30.4966 144.012 30.9527 144.012 31.504C144.012 32.1661 143.797 32.9811 143.393 33.9118C142.988 34.8456 142.385 35.9109 141.595 37.077C140.013 39.4096 137.669 42.1606 134.612 45.0973C128.504 50.9644 119.537 57.5839 108.08 63.0968C105.656 66.0361 103.601 68.6801 102.133 70.7355L102.126 70.7453C102.122 70.7498 102.118 70.7543 102.114 70.7591C105.684 68.404 110.133 65.5334 114.224 63.1632C116.5 61.8451 118.67 60.679 120.518 59.842C121.442 59.4233 122.29 59.0857 123.032 58.852C123.771 58.6194 124.42 58.486 124.942 58.486C125.52 58.486 126.043 58.6009 126.423 58.9158C126.811 59.2375 127.011 59.7341 127.011 60.4066C127.011 63.4247 124.943 65.9137 123.032 67.7962C121.44 69.3652 119.528 70.9342 117.959 72.3463C116.897 73.3027 114.677 75.6246 113.721 76.9386L113.719 76.9409L113.717 76.9442C113.468 77.2637 113.2 77.6921 112.995 78.1464C112.789 78.6037 112.655 79.0703 112.655 79.4696C112.655 79.8378 112.754 80.1419 112.975 80.3557C113.197 80.5703 113.577 80.7281 114.208 80.7281C115.856 80.7281 117.906 80.3078 120.294 79.5674L120.35 79.5495L121.346 79.262C121.294 78.9618 121.267 78.6348 121.267 78.28C121.267 77.3172 121.787 75.7698 124.017 72.717C126.253 69.6547 130.235 65.0441 137.223 57.9454L137.288 57.8801H137.38C139.036 57.8801 140.712 57.7879 141.975 57.6957C142.606 57.6498 143.133 57.6035 143.503 57.5691C143.688 57.5517 143.833 57.5371 143.932 57.527C143.981 57.522 144.21 57.4976 144.235 57.4951L144.304 57.6321L144.608 58.2411L144.459 58.3512C142.475 59.821 138.565 63.2507 134.704 66.927C130.841 70.6052 127.049 74.5102 125.288 76.931L125.283 76.9369C125.035 77.2564 124.767 77.6851 124.562 78.1397C124.356 78.597 124.221 79.0633 124.221 79.4629C124.221 79.7874 124.307 80.062 124.523 80.2719C124.743 80.4863 125.13 80.6634 125.794 80.7219C126.877 80.8169 129.327 80.762 132.176 78.4524L132.179 78.4546C134.941 76.2411 138.845 72.944 142.435 69.6648C144.891 67.4213 147.195 65.191 148.884 63.3252C149.728 62.3918 150.415 61.5542 150.889 60.8553C151.126 60.5058 151.307 60.1951 151.428 59.928C151.55 59.6576 151.603 59.4474 151.603 59.2939C151.603 59.2345 151.586 59.207 151.568 59.1919C151.547 59.1731 151.494 59.1448 151.38 59.1448C151.356 59.1448 151.288 59.1582 151.16 59.2084C151.04 59.2558 150.887 59.3272 150.706 59.4225C150.342 59.6128 149.874 59.8888 149.328 60.2293L149.03 59.9171L149.787 58.8223L149.833 58.7976C150.624 58.3616 151.349 58.0071 151.99 57.7613C152.628 57.5167 153.198 57.374 153.672 57.3738C154.24 57.3738 154.659 57.5587 154.932 57.888C155.198 58.2097 155.297 58.637 155.297 59.0725C155.297 59.5279 155.137 60.0673 154.811 60.7188C154.484 61.3726 153.982 62.1558 153.276 63.1036C152.08 64.7087 150.287 66.8014 147.746 69.5602C151.096 67.203 154.882 64.6333 158.316 62.5428C160.338 61.3121 162.242 60.2452 163.866 59.485C165.479 58.7301 166.849 58.2612 167.79 58.261C168.368 58.261 168.891 58.3753 169.271 58.6903C169.659 59.012 169.859 59.5085 169.859 60.1811C169.859 61.6808 169.268 63.1691 168.308 64.6386C167.347 66.1084 166.007 67.5746 164.487 69.0345C162.971 70.4909 157.995 74.5194 157.967 74.5424C157.967 74.5424 155.456 76.7374 154.766 78.0018C154.51 78.4703 154.335 79.0879 154.335 79.4875C154.335 79.8942 154.434 80.1598 154.655 80.3736C154.877 80.588 155.194 80.8304 155.77 80.7808C156.259 80.739 156.954 80.3551 157.732 79.7992C158.933 78.836 160.213 77.744 161.558 76.5466C161.785 76.3381 162.001 76.1394 162.203 75.9544L162.202 75.9687C169.693 69.2161 179.061 59.4155 187.894 50.5648C193.461 44.9866 198.815 39.7884 203.343 35.9839C205.606 34.082 207.668 32.5236 209.452 31.4397C211.226 30.3613 212.758 29.7314 213.95 29.7314ZM213.141 60.3904C214.206 59.9137 215.129 59.6559 215.859 59.6559C216.293 59.6559 216.561 59.7111 216.715 59.7949C216.787 59.8344 216.828 59.8776 216.854 59.9205C216.879 59.9639 216.895 60.0211 216.895 60.1006C216.895 60.2761 216.807 60.5243 216.596 60.841C216.389 61.1523 216.079 61.5068 215.675 61.8904C214.867 62.6571 213.704 63.5211 212.29 64.3654C209.639 65.9498 206.132 67.4515 202.502 68.1154C204.826 65.9722 207.34 63.9255 209.652 62.3811C210.898 61.5491 212.081 60.8654 213.141 60.3904ZM212.053 31.4862C212.929 31.1062 213.69 30.9112 214.32 30.9112C214.345 30.9113 214.372 30.9195 214.402 30.9663C214.436 31.0209 214.469 31.1233 214.469 31.2825C214.469 31.5499 214.391 31.9419 214.212 32.4543C214.033 32.9634 213.759 33.5793 213.377 34.2894C213.175 34.6653 212.942 35.0677 212.679 35.4938C209.205 41.1016 200.296 50.8445 182.466 60.6C182.12 60.7889 181.771 60.9775 181.419 61.1663C185.516 56.2341 190.379 50.6792 195.171 45.6855C200.246 40.3967 205.231 35.7494 209.138 33.1343C210.201 32.4232 211.178 31.8653 212.053 31.4862ZM139.818 31.6928C140.885 31.1783 141.641 30.9113 142.378 30.9112C142.459 30.9112 142.563 30.9113 142.617 30.9663C142.685 31.036 142.685 31.1806 142.685 31.3293V31.3605C142.685 31.6885 142.568 32.121 142.297 32.8037C142.027 33.4814 141.612 34.3122 141.029 35.274C139.864 37.1975 138.037 39.6361 135.399 42.4125C130.258 47.8225 122.039 54.5096 109.637 61.1652C114.915 54.8122 121.461 47.4268 127.49 41.5391C130.642 38.4609 133.648 35.7964 136.254 33.9032C137.557 32.9566 138.755 32.2058 139.818 31.6928ZM124.021 79.7369L124.021 79.7347L124.02 79.7308L124.02 79.7288L124.019 79.7221C124.02 79.7288 124.021 79.7353 124.023 79.742L124.023 79.7434L124.023 79.7451L124.023 79.742L124.022 79.7389L124.021 79.7369Z" fill="black"/>
</svg>
