<svg width="300" height="100" viewBox="0 0 300 100" fill="none" xmlns="http://www.w3.org/2000/svg">
<path fill-rule="evenodd" clip-rule="evenodd" d="M26.2231 21.1404C16.3875 22.3009 7.77485 28.3047 3.38115 37.0632C1.11913 41.5722 0.28364 45.423 0.281303 51.3497L0.280461 53.4171H26.0361C50.5039 53.4171 51.7917 53.4253 51.7898 53.5798C51.7887 53.6691 51.7043 54.1187 51.6023 54.5786C50.6373 58.9303 48.5722 62.6013 45.3293 65.7299C41.9369 69.0027 37.8175 71.0223 32.982 71.7834C31.4738 72.0208 27.9059 72.0194 26.2231 71.7809C18.9424 70.7487 13.3626 66.8338 10.0484 60.4326C9.73079 59.8194 9.28579 58.8474 9.05927 58.2728C8.67382 57.2947 8.6311 57.228 8.39046 57.2274L8.13338 57.2269V63.3596V69.4924H4.06669H0V73.6273V77.7623H4.11343H8.22686L8.22546 73.7899L8.22415 69.8176L9.1837 70.7343C12.6165 74.0139 16.8668 76.4653 21.4553 77.8121C27.5025 79.5871 34.3713 79.3206 40.2929 77.0811C49.5697 73.5728 56.5978 65.4324 58.5574 55.926C59.0075 53.7422 59.0969 52.786 59.15 49.5842L59.2006 46.541H33.4251H7.64949L7.71465 46.1461C7.75036 45.929 7.91714 45.2076 8.08504 44.5432C9.90234 37.3541 15.4912 31.4215 22.6411 29.0917C25.1462 28.2755 27.1356 27.957 29.7289 27.957C35.613 27.957 41.1089 30.166 45.3292 34.2274C47.6091 36.4215 49.4239 39.1053 50.5141 41.895C50.8046 42.6386 50.84 42.6865 51.1202 42.7139L51.4179 42.7431V36.5579V30.3729H55.4846H59.5513V26.2379V22.103H55.4378H51.3244V26.1575V30.212L50.2723 29.2006C45.5209 24.6332 39.2277 21.7311 32.6808 21.0882C31.2714 20.9498 27.5859 20.9796 26.2231 21.1404ZM92.9729 21.0906C85.1244 21.9369 79.5719 26.8787 78.0438 34.3778C77.8531 35.3135 77.8284 35.6973 77.8313 37.6671C77.8348 40.1384 77.9501 40.9425 78.5393 42.6094C79.9017 46.4634 82.6075 49.2828 86.569 50.9763C88.4961 51.8 89.3894 52.0245 94.9829 53.0903C97.271 53.5263 99.5637 53.9906 100.078 54.122C104.676 55.2977 107.526 57.7363 108.175 61.0487C108.324 61.8123 108.322 64.0309 108.17 64.9857C108.01 65.9976 107.66 67.0687 107.201 67.9592C106.63 69.0648 105.343 70.3191 104.159 70.9228C101.925 72.0627 99.1809 72.551 95.6373 72.4394C91.6131 72.3127 88.7836 71.2936 86.6463 69.2012C84.6019 67.1996 83.4861 64.1626 83.4845 60.5952L83.484 59.364H79.9651H76.4462L76.499 61.3386C76.6097 65.4775 77.5216 68.6015 79.4518 71.4532C82.2145 75.5351 86.5244 77.9693 92.4587 78.7996C93.6124 78.961 97.849 78.9586 99.2365 78.7958C106.269 77.9706 111.334 74.8828 113.812 69.9105C114.429 68.6716 114.815 67.5363 115.151 65.9753C115.387 64.8784 115.404 64.6447 115.407 62.4769C115.409 60.6138 115.377 59.9883 115.243 59.3176C114.113 53.6503 110.299 49.7998 103.927 47.893C103.319 47.7111 100.564 47.1012 97.8039 46.5378C95.044 45.9744 92.3232 45.3699 91.7576 45.1945C88.7062 44.2482 86.8994 42.749 85.6359 40.1148C85.0974 38.9921 84.9513 38.3302 84.9523 37.0167C84.9556 32.2204 87.3955 29.0262 91.8978 27.9239C95.2802 27.0958 99.7651 27.5389 102.596 28.9809C106.198 30.8157 108.162 34.3961 108.164 39.1306L108.165 40.3154H111.53H114.896V38.8513C114.896 29.1604 109.297 22.7262 99.5927 21.2641C98.0936 21.0383 94.3647 20.9405 92.9729 21.0906ZM121.814 49.9326V77.7623H125.647H129.48V66.4823C129.48 59.2949 129.515 54.8532 129.578 54.24C130.104 49.07 132.449 45.7595 136.538 44.4172C137.766 44.014 138.933 43.8463 140.51 43.8463C143.157 43.8463 144.656 44.3504 146.036 45.7047C147.318 46.9636 147.991 48.5949 148.266 51.1137C148.33 51.7011 148.364 56.5084 148.364 64.8892V77.7623H152.201H156.037L156.005 63.801C155.969 48.6829 155.987 49.2296 155.461 46.8732C153.92 39.9709 148.847 36.3179 141.446 36.7803C139.194 36.921 137.881 37.2459 136.164 38.0876C133.016 39.6306 130.522 42.8025 129.134 47.0267C128.733 48.249 128.663 48.3954 128.475 48.3973C128.314 48.399 128.264 48.3465 128.264 48.1744C128.264 48.0505 128.538 45.7105 128.872 42.9743L129.48 37.9992V30.0511V22.103H125.647H121.814V49.9326ZM162.481 26.2379V30.3729H166.641H170.801V26.2379V22.103H166.641H162.481V26.2379ZM218.947 49.9326V77.7623H222.826H226.706L226.709 71.4669L226.712 65.1716L228.731 62.9415C229.841 61.7149 230.944 60.4954 231.182 60.2312L231.614 59.7511L236.849 68.7546L242.085 77.7581L246.37 77.7602C248.726 77.7614 250.64 77.7278 250.623 77.6857C250.606 77.6436 247.569 72.4791 243.874 66.2091C239.115 58.1344 237.182 54.7755 237.246 54.6939C237.367 54.5395 246.29 43.7253 248.976 40.478L251.108 37.8994H246.953H242.799L234.262 47.6262C229.566 52.9759 225.695 57.3966 225.659 57.4498C225.43 57.7924 225.529 57.1024 226.036 54.8342L226.613 52.2556L226.613 37.1793L226.613 22.103H222.78H218.947V49.9326ZM292.147 26.2379V30.3729H296.074H300V26.2379V22.103H296.074H292.147V26.2379ZM17.8843 36.1435C17.2271 36.3946 16.523 37.0436 16.2013 37.6947C15.9733 38.1563 15.9396 38.3325 15.94 39.0609C15.9404 39.7351 15.9821 39.9873 16.1548 40.3618C16.4469 40.995 17.0429 41.5844 17.7158 41.9058C18.1845 42.1295 18.3953 42.1737 18.9977 42.1737C20.3384 42.1739 21.3215 41.5883 21.8826 40.4554C22.1282 39.9596 22.1775 39.75 22.1819 39.1827C22.1884 38.3513 22.0625 37.885 21.6744 37.3027C20.8907 36.1267 19.2452 35.6234 17.8843 36.1435ZM196.435 36.8873C191.171 37.5908 187.335 41.1083 185.324 47.0753C184.923 48.2639 184.856 48.3994 184.664 48.3994C184.546 48.3994 184.45 48.3472 184.451 48.2833C184.451 48.2195 184.724 45.9301 185.058 43.1959C185.392 40.4617 185.665 38.1515 185.665 38.062C185.665 37.9098 185.421 37.8994 181.832 37.8994H177.999V57.8773V77.8552H181.828H185.657L185.691 66.124C185.726 54.5412 185.729 54.3794 185.929 53.3383C186.442 50.6791 187.471 48.6275 189.113 46.9936C191.369 44.7494 194.579 43.6285 197.889 43.9301C201.319 44.2426 203.166 45.657 204.035 48.6381C204.548 50.399 204.55 50.4473 204.55 64.7117V77.8552H208.383H212.216V64.5175C212.216 55.7707 212.182 50.8692 212.117 50.2775C211.81 47.4749 210.934 44.9865 209.493 42.8242C208.725 41.6709 206.859 39.8025 205.748 39.0736C204.232 38.0791 202.59 37.3824 200.904 37.0179C200.054 36.8342 197.411 36.7569 196.435 36.8873ZM267.84 36.8886C261.777 37.5811 256.785 41.1594 254.051 46.7733C252.34 50.2873 251.563 54.1813 251.698 58.5742C251.976 67.6105 255.398 74.0556 261.53 77.0899C262.972 77.8036 265.169 78.4588 267.051 78.7366C268.553 78.9584 271.066 79.0636 272.375 78.9598C278.376 78.4832 283.51 75.2327 286.015 70.3241C286.592 69.1931 287.199 67.5342 287.331 66.728L287.396 66.3331H283.554C280.544 66.3331 279.713 66.3582 279.712 66.4492C279.712 66.5132 279.487 67.0253 279.213 67.5875C277.765 70.56 275.436 72.0454 271.699 72.3796C270.31 72.5037 268.625 72.3775 267.338 72.0528C262.739 70.8933 260.211 67.23 259.71 60.9999C259.657 60.3408 259.614 59.6405 259.614 59.4435V59.0853H273.543H287.473L287.471 57.3895C287.467 52.3239 286.805 48.8555 285.232 45.6583C282.7 40.5119 278.211 37.4993 272.154 36.8829C271.037 36.7692 268.86 36.7721 267.84 36.8886ZM162.854 57.8309V77.7623H166.641H170.427V57.8309V37.8994H166.641H162.854V57.8309ZM292.428 57.8309V77.7623H296.027H299.626V57.8309V37.8994H296.027H292.428V57.8309ZM272.303 43.4291C276.647 44.2481 279.365 47.3718 279.761 52.0001L279.826 52.7667H269.813C264.306 52.7667 259.801 52.7404 259.801 52.7082C259.801 52.676 259.909 52.1671 260.043 51.5772C260.774 48.3342 262.251 45.9082 264.288 44.6036C265.329 43.9368 266.85 43.4549 268.442 43.2874C269.438 43.1826 271.372 43.2535 272.303 43.4291ZM38.368 56.4902C37.7761 56.6315 37.0157 57.1341 36.6352 57.6355C36.1531 58.2708 35.9581 58.9401 36.0138 59.7683C36.0934 60.9495 36.6892 61.8391 37.7474 62.3568C38.3089 62.6316 38.4536 62.6623 39.1691 62.6594C40.1283 62.6554 40.6267 62.4632 41.2991 61.8381C42.3405 60.8698 42.603 59.3779 41.9577 58.0939C41.6971 57.5751 40.9764 56.8987 40.4271 56.6571C39.9373 56.4418 38.9171 56.359 38.368 56.4902Z" fill="black"/>
</svg>
