<svg width="300" height="100" viewBox="0 0 300 100" fill="none" xmlns="http://www.w3.org/2000/svg">
<path d="M27.1291 51.0586H7.08371V44.9355H32.9317C32.2535 42.3379 30.0681 39.9258 26.2248 39.9258H7.46051C3.16506 39.9258 0.678228 41.874 0.678228 46.1416V50.6875C0.678228 54.3984 3.24042 56.5322 7.00836 56.5322H27.2798V63.0264H0C0.678228 66.5518 2.86363 68.4072 6.78228 68.4072H27.2045C31.4999 68.4072 33.61 66.3662 33.61 62.0059V57.46C33.61 53.4707 31.1231 51.3369 27.1291 51.0586ZM68.0489 40.0186H43.3312V68.5H50.3396V57.5527H68.5764C73.6254 57.5527 76.4137 55.4189 76.4137 50.4092V47.2549C76.3383 42.6162 73.1733 40.0186 68.0489 40.0186ZM70.3096 49.1104C70.3096 51.1514 70.0082 52.2646 67.2953 52.2646H50.3396L50.415 44.8428H66.9939C70.0082 44.8428 70.385 45.9561 70.385 47.9043V49.1104H70.3096ZM99.6995 57.3672H84.7785L81.0859 62.1914H102.639L106.331 68.5H114.621L96.7605 38.8125L92.5404 45.2139L99.6995 57.3672ZM128.034 44.9355H154.259C153.581 41.5957 150.943 39.9258 147.175 39.9258H127.582C124.191 39.9258 120.951 41.5957 120.951 46.1416V62.0986C120.951 66.6445 124.191 68.3145 127.582 68.3145H147.402C151.923 68.3145 153.506 66.7373 154.259 62.9336H128.034V44.9355ZM185.006 54.3984V49.5742H163.83V68.5H195.104V63.1191H170.913V54.3984H185.006ZM164.583 40.0186H196.159V45.0283H164.583V40.0186ZM215.601 40.0186H204.599L217.56 51.708C219.444 50.1309 221.63 48.4609 223.589 47.0693L215.601 40.0186ZM231.577 54.584C229.693 56.1611 227.809 57.9238 226.001 59.5938L235.797 68.4072H246.875L231.577 54.584Z" fill="black"/>
<path d="M300 31C238.976 34.5567 210.753 61 204.422 67.2629L203.125 68.5H214.414C244.926 37.4948 288.787 32.0052 300 31Z" fill="black"/>
</svg>
