<svg width="300" height="100" viewBox="0 0 300 100" fill="none" xmlns="http://www.w3.org/2000/svg">
<path fill-rule="evenodd" clip-rule="evenodd" d="M86.0715 50.0866V24H119.532C123.335 24 126.753 24.7634 129.785 26.2903C130.506 26.6412 131.191 27.024 131.842 27.4388C134.136 28.8158 136.02 30.5714 137.491 32.7056C139.289 35.316 140.189 38.3205 140.189 41.7191C140.189 43.5746 139.944 44.1909 139.447 44.7257C139.289 45.6108 139.065 46.4693 138.774 47.301C146.908 47.2104 155.042 47.2764 163.174 47.4991V24.2831H213.212V36.3258H177.824V48.0699C201.251 49.2544 224.624 51.741 247.824 55.5294L253.321 49.5028L229.539 24.2831H248.737L263.675 40.5289L277.34 24.2831H296.152L272.721 50.271L297 76H277.725L275.13 73.1737C268.099 71.6718 261.044 70.2938 253.973 69.0399L247.888 76H229.154L237.902 66.4081C217.97 63.4131 197.917 61.3967 177.824 60.3587V63.9573H214.368V76H163.174V59.7756C149.663 59.3976 136.142 59.4614 122.634 59.9669C121.146 60.222 119.598 60.3496 117.989 60.3496H114.015C109.939 60.5589 105.865 60.8085 101.794 61.0984V76H86.5287V75.7169H86.0715V62.4192C78.5938 63.1432 71.1279 64.0035 63.6768 64.9999L69.3839 76H53.8871L49.1895 67.1123C39.0714 68.71 28.9858 70.5605 18.9427 72.6635L17.1883 76H2L28.9844 24.2831H42.5536L57.6733 53.4272C67.1171 52.0991 76.586 50.9855 86.0715 50.0866ZM43.1288 55.6455L38.8529 47.5557L37.1568 44.3049C36.6942 43.3198 36.283 42.3841 35.9232 41.4975C35.7864 41.1418 35.6496 40.7896 35.513 40.441C35.346 40.8424 35.1744 41.2438 34.9981 41.6452C34.5869 42.581 34.1243 43.5415 33.6103 44.5266C33.1476 45.5116 32.6593 46.5214 32.1454 47.5557L26.3142 58.645C31.9077 57.5689 37.5131 56.569 43.1288 55.6455ZM101.562 36.9168V47.7159H102.74C104.736 47.4584 108.571 47.5457 112.987 47.7159H114.751C116.448 47.7159 117.939 47.4942 119.223 47.051C120.559 46.5584 121.639 45.8443 122.461 44.9084C123.284 43.9726 123.695 42.8889 123.695 41.6576C123.695 40.5247 123.284 39.589 122.461 38.8501C122.259 38.6684 122.041 38.4985 121.807 38.3406C121.191 37.9922 120.482 37.7146 119.681 37.5079C118.396 37.1139 116.905 36.9168 115.209 36.9168H101.562Z" fill="black"/>
</svg>
